<svg xmlns="http://www.w3.org/2000/svg" viewBox="0 0 1246 140" width="1246" height="140" shape-rendering="crispEdges">
<rect width="100%" height="100%" fill="#1c1c24"/>
<text x="2" y="136" fill="#888899" font-size="11" font-family="monospace">z=0</text>
<text x="142" y="136" fill="#888899" font-size="11" font-family="monospace">z=1</text>
<text x="282" y="136" fill="#888899" font-size="11" font-family="monospace">z=2</text>
<text x="422" y="136" fill="#888899" font-size="11" font-family="monospace">z=3</text>
<text x="562" y="136" fill="#888899" font-size="11" font-family="monospace">z=4</text>
<text x="702" y="136" fill="#888899" font-size="11" font-family="monospace">z=5</text>
<text x="842" y="136" fill="#888899" font-size="11" font-family="monospace">z=6</text>
<text x="982" y="136" fill="#888899" font-size="11" font-family="monospace">z=7</text>
<text x="1122" y="136" fill="#888899" font-size="11" font-family="monospace">z=8</text>
<rect x="0" y="0" width="14" height="14" fill="#44444f"/>
<rect x="14" y="0" width="14" height="14" fill="#44444f"/>
<rect x="28" y="0" width="14" height="14" fill="#44444f"/>
<rect x="42" y="0" width="14" height="14" fill="#44444f"/>
<rect x="56" y="0" width="14" height="14" fill="#44444f"/>
<rect x="70" y="0" width="14" height="14" fill="#44444f"/>
<rect x="84" y="0" width="14" height="14" fill="#44444f"/>
<rect x="98" y="0" width="14" height="14" fill="#44444f"/>
<rect x="112" y="0" width="14" height="14" fill="#44444f"/>
<rect x="0" y="14" width="14" height="14" fill="#44444f"/>
<rect x="14" y="14" width="14" height="14" fill="#44444f"/>
<rect x="28" y="14" width="14" height="14" fill="#44444f"/>
<rect x="42" y="14" width="14" height="14" fill="#44444f"/>
<rect x="56" y="14" width="14" height="14" fill="#44444f"/>
<rect x="70" y="14" width="14" height="14" fill="#44444f"/>
<rect x="84" y="14" width="14" height="14" fill="#44444f"/>
<rect x="98" y="14" width="14" height="14" fill="#44444f"/>
<rect x="112" y="14" width="14" height="14" fill="#44444f"/>
<rect x="0" y="28" width="14" height="14" fill="#44444f"/>
<rect x="14" y="28" width="14" height="14" fill="#44444f"/>
<rect x="28" y="28" width="14" height="14" fill="#44444f"/>
<rect x="42" y="28" width="14" height="14" fill="#44444f"/>
<rect x="56" y="28" width="14" height="14" fill="#44444f"/>
<rect x="70" y="28" width="14" height="14" fill="#44444f"/>
<rect x="84" y="28" width="14" height="14" fill="#44444f"/>
<rect x="98" y="28" width="14" height="14" fill="#44444f"/>
<rect x="112" y="28" width="14" height="14" fill="#44444f"/>
<rect x="0" y="42" width="14" height="14" fill="#44444f"/>
<rect x="14" y="42" width="14" height="14" fill="#44444f"/>
<rect x="28" y="42" width="14" height="14" fill="#44444f"/>
<rect x="42" y="42" width="14" height="14" fill="#44444f"/>
<rect x="56" y="42" width="14" height="14" fill="#44444f"/>
<rect x="70" y="42" width="14" height="14" fill="#44444f"/>
<rect x="84" y="42" width="14" height="14" fill="#44444f"/>
<rect x="98" y="42" width="14" height="14" fill="#44444f"/>
<rect x="112" y="42" width="14" height="14" fill="#44444f"/>
<rect x="0" y="56" width="14" height="14" fill="#44444f"/>
<rect x="14" y="56" width="14" height="14" fill="#44444f"/>
<rect x="28" y="56" width="14" height="14" fill="#44444f"/>
<rect x="42" y="56" width="14" height="14" fill="#44444f"/>
<rect x="56" y="56" width="14" height="14" fill="#44444f"/>
<rect x="70" y="56" width="14" height="14" fill="#44444f"/>
<rect x="84" y="56" width="14" height="14" fill="#44444f"/>
<rect x="98" y="56" width="14" height="14" fill="#44444f"/>
<rect x="112" y="56" width="14" height="14" fill="#44444f"/>
<rect x="0" y="70" width="14" height="14" fill="#44444f"/>
<rect x="14" y="70" width="14" height="14" fill="#44444f"/>
<rect x="28" y="70" width="14" height="14" fill="#44444f"/>
<rect x="42" y="70" width="14" height="14" fill="#44444f"/>
<rect x="56" y="70" width="14" height="14" fill="#44444f"/>
<rect x="70" y="70" width="14" height="14" fill="#44444f"/>
<rect x="84" y="70" width="14" height="14" fill="#44444f"/>
<rect x="98" y="70" width="14" height="14" fill="#44444f"/>
<rect x="112" y="70" width="14" height="14" fill="#44444f"/>
<rect x="0" y="84" width="14" height="14" fill="#44444f"/>
<rect x="14" y="84" width="14" height="14" fill="#44444f"/>
<rect x="28" y="84" width="14" height="14" fill="#44444f"/>
<rect x="42" y="84" width="14" height="14" fill="#44444f"/>
<rect x="56" y="84" width="14" height="14" fill="#44444f"/>
<rect x="70" y="84" width="14" height="14" fill="#44444f"/>
<rect x="84" y="84" width="14" height="14" fill="#44444f"/>
<rect x="98" y="84" width="14" height="14" fill="#44444f"/>
<rect x="112" y="84" width="14" height="14" fill="#44444f"/>
<rect x="0" y="98" width="14" height="14" fill="#44444f"/>
<rect x="14" y="98" width="14" height="14" fill="#44444f"/>
<rect x="28" y="98" width="14" height="14" fill="#44444f"/>
<rect x="42" y="98" width="14" height="14" fill="#44444f"/>
<rect x="56" y="98" width="14" height="14" fill="#44444f"/>
<rect x="70" y="98" width="14" height="14" fill="#44444f"/>
<rect x="84" y="98" width="14" height="14" fill="#44444f"/>
<rect x="98" y="98" width="14" height="14" fill="#44444f"/>
<rect x="112" y="98" width="14" height="14" fill="#44444f"/>
<rect x="0" y="112" width="14" height="14" fill="#44444f"/>
<rect x="14" y="112" width="14" height="14" fill="#44444f"/>
<rect x="28" y="112" width="14" height="14" fill="#44444f"/>
<rect x="42" y="112" width="14" height="14" fill="#44444f"/>
<rect x="56" y="112" width="14" height="14" fill="#44444f"/>
<rect x="70" y="112" width="14" height="14" fill="#44444f"/>
<rect x="84" y="112" width="14" height="14" fill="#44444f"/>
<rect x="98" y="112" width="14" height="14" fill="#44444f"/>
<rect x="112" y="112" width="14" height="14" fill="#44444f"/>
<rect x="140" y="0" width="14" height="14" fill="#44444f"/>
<rect x="154" y="0" width="14" height="14" fill="#44444f"/>
<rect x="168" y="0" width="14" height="14" fill="#44444f"/>
<rect x="182" y="0" width="14" height="14" fill="#44444f"/>
<rect x="196" y="0" width="14" height="14" fill="#44444f"/>
<rect x="210" y="0" width="14" height="14" fill="#44444f"/>
<rect x="224" y="0" width="14" height="14" fill="#44444f"/>
<rect x="238" y="0" width="14" height="14" fill="#44444f"/>
<rect x="252" y="0" width="14" height="14" fill="#44444f"/>
<rect x="140" y="14" width="14" height="14" fill="#44444f"/>
<rect x="154" y="14" width="14" height="14" fill="#27ae60"/>
<rect x="168" y="14" width="14" height="14" fill="#44444f"/>
<rect x="182" y="14" width="14" height="14" fill="#f2f2f5"/>
<rect x="196" y="14" width="14" height="14" fill="#f2f2f5"/>
<rect x="210" y="14" width="14" height="14" fill="#f2f2f5"/>
<rect x="224" y="14" width="14" height="14" fill="#f2f2f5"/>
<rect x="238" y="14" width="14" height="14" fill="#f2f2f5"/>
<rect x="252" y="14" width="14" height="14" fill="#44444f"/>
<rect x="140" y="28" width="14" height="14" fill="#44444f"/>
<rect x="154" y="28" width="14" height="14" fill="#f2f2f5"/>
<rect x="168" y="28" width="14" height="14" fill="#44444f"/>
<rect x="182" y="28" width="14" height="14" fill="#44444f"/>
<rect x="196" y="28" width="14" height="14" fill="#44444f"/>
<rect x="210" y="28" width="14" height="14" fill="#f2f2f5"/>
<rect x="224" y="28" width="14" height="14" fill="#44444f"/>
<rect x="238" y="28" width="14" height="14" fill="#44444f"/>
<rect x="252" y="28" width="14" height="14" fill="#44444f"/>
<rect x="140" y="42" width="14" height="14" fill="#44444f"/>
<rect x="154" y="42" width="14" height="14" fill="#f2f2f5"/>
<rect x="168" y="42" width="14" height="14" fill="#44444f"/>
<rect x="182" y="42" width="14" height="14" fill="#f2f2f5"/>
<rect x="196" y="42" width="14" height="14" fill="#f2f2f5"/>
<rect x="210" y="42" width="14" height="14" fill="#f2f2f5"/>
<rect x="224" y="42" width="14" height="14" fill="#44444f"/>
<rect x="238" y="42" width="14" height="14" fill="#f2f2f5"/>
<rect x="252" y="42" width="14" height="14" fill="#44444f"/>
<rect x="140" y="56" width="14" height="14" fill="#44444f"/>
<rect x="154" y="56" width="14" height="14" fill="#44444f"/>
<rect x="168" y="56" width="14" height="14" fill="#44444f"/>
<rect x="182" y="56" width="14" height="14" fill="#f2f2f5"/>
<rect x="196" y="56" width="14" height="14" fill="#44444f"/>
<rect x="210" y="56" width="14" height="14" fill="#44444f"/>
<rect x="224" y="56" width="14" height="14" fill="#44444f"/>
<rect x="238" y="56" width="14" height="14" fill="#f2f2f5"/>
<rect x="252" y="56" width="14" height="14" fill="#44444f"/>
<rect x="140" y="70" width="14" height="14" fill="#44444f"/>
<rect x="154" y="70" width="14" height="14" fill="#f2f2f5"/>
<rect x="168" y="70" width="14" height="14" fill="#f2f2f5"/>
<rect x="182" y="70" width="14" height="14" fill="#f2f2f5"/>
<rect x="196" y="70" width="14" height="14" fill="#44444f"/>
<rect x="210" y="70" width="14" height="14" fill="#f2f2f5"/>
<rect x="224" y="70" width="14" height="14" fill="#f2f2f5"/>
<rect x="238" y="70" width="14" height="14" fill="#f2f2f5"/>
<rect x="252" y="70" width="14" height="14" fill="#44444f"/>
<rect x="140" y="84" width="14" height="14" fill="#44444f"/>
<rect x="154" y="84" width="14" height="14" fill="#44444f"/>
<rect x="168" y="84" width="14" height="14" fill="#44444f"/>
<rect x="182" y="84" width="14" height="14" fill="#44444f"/>
<rect x="196" y="84" width="14" height="14" fill="#44444f"/>
<rect x="210" y="84" width="14" height="14" fill="#44444f"/>
<rect x="224" y="84" width="14" height="14" fill="#44444f"/>
<rect x="238" y="84" width="14" height="14" fill="#44444f"/>
<rect x="252" y="84" width="14" height="14" fill="#44444f"/>
<rect x="140" y="98" width="14" height="14" fill="#44444f"/>
<rect x="154" y="98" width="14" height="14" fill="#f2f2f5"/>
<rect x="168" y="98" width="14" height="14" fill="#f2f2f5"/>
<rect x="182" y="98" width="14" height="14" fill="#f2f2f5"/>
<rect x="196" y="98" width="14" height="14" fill="#f2f2f5"/>
<rect x="210" y="98" width="14" height="14" fill="#f2f2f5"/>
<rect x="224" y="98" width="14" height="14" fill="#44444f"/>
<rect x="238" y="98" width="14" height="14" fill="#f2f2f5"/>
<rect x="252" y="98" width="14" height="14" fill="#44444f"/>
<rect x="140" y="112" width="14" height="14" fill="#44444f"/>
<rect x="154" y="112" width="14" height="14" fill="#44444f"/>
<rect x="168" y="112" width="14" height="14" fill="#44444f"/>
<rect x="182" y="112" width="14" height="14" fill="#44444f"/>
<rect x="196" y="112" width="14" height="14" fill="#44444f"/>
<rect x="210" y="112" width="14" height="14" fill="#44444f"/>
<rect x="224" y="112" width="14" height="14" fill="#44444f"/>
<rect x="238" y="112" width="14" height="14" fill="#44444f"/>
<rect x="252" y="112" width="14" height="14" fill="#44444f"/>
<rect x="280" y="0" width="14" height="14" fill="#44444f"/>
<rect x="294" y="0" width="14" height="14" fill="#44444f"/>
<rect x="308" y="0" width="14" height="14" fill="#44444f"/>
<rect x="322" y="0" width="14" height="14" fill="#44444f"/>
<rect x="336" y="0" width="14" height="14" fill="#44444f"/>
<rect x="350" y="0" width="14" height="14" fill="#44444f"/>
<rect x="364" y="0" width="14" height="14" fill="#44444f"/>
<rect x="378" y="0" width="14" height="14" fill="#44444f"/>
<rect x="392" y="0" width="14" height="14" fill="#44444f"/>
<rect x="280" y="14" width="14" height="14" fill="#44444f"/>
<rect x="294" y="14" width="14" height="14" fill="#44444f"/>
<rect x="308" y="14" width="14" height="14" fill="#44444f"/>
<rect x="322" y="14" width="14" height="14" fill="#44444f"/>
<rect x="336" y="14" width="14" height="14" fill="#44444f"/>
<rect x="350" y="14" width="14" height="14" fill="#44444f"/>
<rect x="364" y="14" width="14" height="14" fill="#44444f"/>
<rect x="378" y="14" width="14" height="14" fill="#f2f2f5"/>
<rect x="392" y="14" width="14" height="14" fill="#44444f"/>
<rect x="280" y="28" width="14" height="14" fill="#44444f"/>
<rect x="294" y="28" width="14" height="14" fill="#44444f"/>
<rect x="308" y="28" width="14" height="14" fill="#44444f"/>
<rect x="322" y="28" width="14" height="14" fill="#44444f"/>
<rect x="336" y="28" width="14" height="14" fill="#44444f"/>
<rect x="350" y="28" width="14" height="14" fill="#44444f"/>
<rect x="364" y="28" width="14" height="14" fill="#44444f"/>
<rect x="378" y="28" width="14" height="14" fill="#44444f"/>
<rect x="392" y="28" width="14" height="14" fill="#44444f"/>
<rect x="280" y="42" width="14" height="14" fill="#44444f"/>
<rect x="294" y="42" width="14" height="14" fill="#f2f2f5"/>
<rect x="308" y="42" width="14" height="14" fill="#44444f"/>
<rect x="322" y="42" width="14" height="14" fill="#f2f2f5"/>
<rect x="336" y="42" width="14" height="14" fill="#44444f"/>
<rect x="350" y="42" width="14" height="14" fill="#f2f2f5"/>
<rect x="364" y="42" width="14" height="14" fill="#44444f"/>
<rect x="378" y="42" width="14" height="14" fill="#f2f2f5"/>
<rect x="392" y="42" width="14" height="14" fill="#44444f"/>
<rect x="280" y="56" width="14" height="14" fill="#44444f"/>
<rect x="294" y="56" width="14" height="14" fill="#44444f"/>
<rect x="308" y="56" width="14" height="14" fill="#44444f"/>
<rect x="322" y="56" width="14" height="14" fill="#44444f"/>
<rect x="336" y="56" width="14" height="14" fill="#44444f"/>
<rect x="350" y="56" width="14" height="14" fill="#44444f"/>
<rect x="364" y="56" width="14" height="14" fill="#44444f"/>
<rect x="378" y="56" width="14" height="14" fill="#44444f"/>
<rect x="392" y="56" width="14" height="14" fill="#44444f"/>
<rect x="280" y="70" width="14" height="14" fill="#44444f"/>
<rect x="294" y="70" width="14" height="14" fill="#f2f2f5"/>
<rect x="308" y="70" width="14" height="14" fill="#44444f"/>
<rect x="322" y="70" width="14" height="14" fill="#44444f"/>
<rect x="336" y="70" width="14" height="14" fill="#44444f"/>
<rect x="350" y="70" width="14" height="14" fill="#f2f2f5"/>
<rect x="364" y="70" width="14" height="14" fill="#44444f"/>
<rect x="378" y="70" width="14" height="14" fill="#44444f"/>
<rect x="392" y="70" width="14" height="14" fill="#44444f"/>
<rect x="280" y="84" width="14" height="14" fill="#44444f"/>
<rect x="294" y="84" width="14" height="14" fill="#44444f"/>
<rect x="308" y="84" width="14" height="14" fill="#44444f"/>
<rect x="322" y="84" width="14" height="14" fill="#44444f"/>
<rect x="336" y="84" width="14" height="14" fill="#44444f"/>
<rect x="350" y="84" width="14" height="14" fill="#44444f"/>
<rect x="364" y="84" width="14" height="14" fill="#44444f"/>
<rect x="378" y="84" width="14" height="14" fill="#44444f"/>
<rect x="392" y="84" width="14" height="14" fill="#44444f"/>
<rect x="280" y="98" width="14" height="14" fill="#44444f"/>
<rect x="294" y="98" width="14" height="14" fill="#f2f2f5"/>
<rect x="308" y="98" width="14" height="14" fill="#44444f"/>
<rect x="322" y="98" width="14" height="14" fill="#44444f"/>
<rect x="336" y="98" width="14" height="14" fill="#44444f"/>
<rect x="350" y="98" width="14" height="14" fill="#f2f2f5"/>
<rect x="364" y="98" width="14" height="14" fill="#44444f"/>
<rect x="378" y="98" width="14" height="14" fill="#f2f2f5"/>
<rect x="392" y="98" width="14" height="14" fill="#44444f"/>
<rect x="280" y="112" width="14" height="14" fill="#44444f"/>
<rect x="294" y="112" width="14" height="14" fill="#44444f"/>
<rect x="308" y="112" width="14" height="14" fill="#44444f"/>
<rect x="322" y="112" width="14" height="14" fill="#44444f"/>
<rect x="336" y="112" width="14" height="14" fill="#44444f"/>
<rect x="350" y="112" width="14" height="14" fill="#44444f"/>
<rect x="364" y="112" width="14" height="14" fill="#44444f"/>
<rect x="378" y="112" width="14" height="14" fill="#44444f"/>
<rect x="392" y="112" width="14" height="14" fill="#44444f"/>
<rect x="420" y="0" width="14" height="14" fill="#44444f"/>
<rect x="434" y="0" width="14" height="14" fill="#44444f"/>
<rect x="448" y="0" width="14" height="14" fill="#44444f"/>
<rect x="462" y="0" width="14" height="14" fill="#44444f"/>
<rect x="476" y="0" width="14" height="14" fill="#44444f"/>
<rect x="490" y="0" width="14" height="14" fill="#44444f"/>
<rect x="504" y="0" width="14" height="14" fill="#44444f"/>
<rect x="518" y="0" width="14" height="14" fill="#44444f"/>
<rect x="532" y="0" width="14" height="14" fill="#44444f"/>
<rect x="420" y="14" width="14" height="14" fill="#44444f"/>
<rect x="434" y="14" width="14" height="14" fill="#f2f2f5"/>
<rect x="448" y="14" width="14" height="14" fill="#44444f"/>
<rect x="462" y="14" width="14" height="14" fill="#f2f2f5"/>
<rect x="476" y="14" width="14" height="14" fill="#f2f2f5"/>
<rect x="490" y="14" width="14" height="14" fill="#f2f2f5"/>
<rect x="504" y="14" width="14" height="14" fill="#44444f"/>
<rect x="518" y="14" width="14" height="14" fill="#f2f2f5"/>
<rect x="532" y="14" width="14" height="14" fill="#44444f"/>
<rect x="420" y="28" width="14" height="14" fill="#44444f"/>
<rect x="434" y="28" width="14" height="14" fill="#f2f2f5"/>
<rect x="448" y="28" width="14" height="14" fill="#44444f"/>
<rect x="462" y="28" width="14" height="14" fill="#44444f"/>
<rect x="476" y="28" width="14" height="14" fill="#44444f"/>
<rect x="490" y="28" width="14" height="14" fill="#44444f"/>
<rect x="504" y="28" width="14" height="14" fill="#44444f"/>
<rect x="518" y="28" width="14" height="14" fill="#44444f"/>
<rect x="532" y="28" width="14" height="14" fill="#44444f"/>
<rect x="420" y="42" width="14" height="14" fill="#44444f"/>
<rect x="434" y="42" width="14" height="14" fill="#f2f2f5"/>
<rect x="448" y="42" width="14" height="14" fill="#44444f"/>
<rect x="462" y="42" width="14" height="14" fill="#f2f2f5"/>
<rect x="476" y="42" width="14" height="14" fill="#44444f"/>
<rect x="490" y="42" width="14" height="14" fill="#f2f2f5"/>
<rect x="504" y="42" width="14" height="14" fill="#44444f"/>
<rect x="518" y="42" width="14" height="14" fill="#f2f2f5"/>
<rect x="532" y="42" width="14" height="14" fill="#44444f"/>
<rect x="420" y="56" width="14" height="14" fill="#44444f"/>
<rect x="434" y="56" width="14" height="14" fill="#44444f"/>
<rect x="448" y="56" width="14" height="14" fill="#44444f"/>
<rect x="462" y="56" width="14" height="14" fill="#f2f2f5"/>
<rect x="476" y="56" width="14" height="14" fill="#44444f"/>
<rect x="490" y="56" width="14" height="14" fill="#44444f"/>
<rect x="504" y="56" width="14" height="14" fill="#44444f"/>
<rect x="518" y="56" width="14" height="14" fill="#44444f"/>
<rect x="532" y="56" width="14" height="14" fill="#44444f"/>
<rect x="420" y="70" width="14" height="14" fill="#44444f"/>
<rect x="434" y="70" width="14" height="14" fill="#f2f2f5"/>
<rect x="448" y="70" width="14" height="14" fill="#44444f"/>
<rect x="462" y="70" width="14" height="14" fill="#f2f2f5"/>
<rect x="476" y="70" width="14" height="14" fill="#f2f2f5"/>
<rect x="490" y="70" width="14" height="14" fill="#f2f2f5"/>
<rect x="504" y="70" width="14" height="14" fill="#44444f"/>
<rect x="518" y="70" width="14" height="14" fill="#f2f2f5"/>
<rect x="532" y="70" width="14" height="14" fill="#44444f"/>
<rect x="420" y="84" width="14" height="14" fill="#44444f"/>
<rect x="434" y="84" width="14" height="14" fill="#f2f2f5"/>
<rect x="448" y="84" width="14" height="14" fill="#44444f"/>
<rect x="462" y="84" width="14" height="14" fill="#44444f"/>
<rect x="476" y="84" width="14" height="14" fill="#44444f"/>
<rect x="490" y="84" width="14" height="14" fill="#44444f"/>
<rect x="504" y="84" width="14" height="14" fill="#44444f"/>
<rect x="518" y="84" width="14" height="14" fill="#f2f2f5"/>
<rect x="532" y="84" width="14" height="14" fill="#44444f"/>
<rect x="420" y="98" width="14" height="14" fill="#44444f"/>
<rect x="434" y="98" width="14" height="14" fill="#f2f2f5"/>
<rect x="448" y="98" width="14" height="14" fill="#44444f"/>
<rect x="462" y="98" width="14" height="14" fill="#f2f2f5"/>
<rect x="476" y="98" width="14" height="14" fill="#44444f"/>
<rect x="490" y="98" width="14" height="14" fill="#f2f2f5"/>
<rect x="504" y="98" width="14" height="14" fill="#44444f"/>
<rect x="518" y="98" width="14" height="14" fill="#f2f2f5"/>
<rect x="532" y="98" width="14" height="14" fill="#44444f"/>
<rect x="420" y="112" width="14" height="14" fill="#44444f"/>
<rect x="434" y="112" width="14" height="14" fill="#44444f"/>
<rect x="448" y="112" width="14" height="14" fill="#44444f"/>
<rect x="462" y="112" width="14" height="14" fill="#44444f"/>
<rect x="476" y="112" width="14" height="14" fill="#44444f"/>
<rect x="490" y="112" width="14" height="14" fill="#44444f"/>
<rect x="504" y="112" width="14" height="14" fill="#44444f"/>
<rect x="518" y="112" width="14" height="14" fill="#44444f"/>
<rect x="532" y="112" width="14" height="14" fill="#44444f"/>
<rect x="560" y="0" width="14" height="14" fill="#44444f"/>
<rect x="574" y="0" width="14" height="14" fill="#44444f"/>
<rect x="588" y="0" width="14" height="14" fill="#44444f"/>
<rect x="602" y="0" width="14" height="14" fill="#44444f"/>
<rect x="616" y="0" width="14" height="14" fill="#44444f"/>
<rect x="630" y="0" width="14" height="14" fill="#44444f"/>
<rect x="644" y="0" width="14" height="14" fill="#44444f"/>
<rect x="658" y="0" width="14" height="14" fill="#44444f"/>
<rect x="672" y="0" width="14" height="14" fill="#44444f"/>
<rect x="560" y="14" width="14" height="14" fill="#44444f"/>
<rect x="574" y="14" width="14" height="14" fill="#f2f2f5"/>
<rect x="588" y="14" width="14" height="14" fill="#44444f"/>
<rect x="602" y="14" width="14" height="14" fill="#f2f2f5"/>
<rect x="616" y="14" width="14" height="14" fill="#44444f"/>
<rect x="630" y="14" width="14" height="14" fill="#f2f2f5"/>
<rect x="644" y="14" width="14" height="14" fill="#44444f"/>
<rect x="658" y="14" width="14" height="14" fill="#44444f"/>
<rect x="672" y="14" width="14" height="14" fill="#44444f"/>
<rect x="560" y="28" width="14" height="14" fill="#44444f"/>
<rect x="574" y="28" width="14" height="14" fill="#44444f"/>
<rect x="588" y="28" width="14" height="14" fill="#44444f"/>
<rect x="602" y="28" width="14" height="14" fill="#44444f"/>
<rect x="616" y="28" width="14" height="14" fill="#44444f"/>
<rect x="630" y="28" width="14" height="14" fill="#44444f"/>
<rect x="644" y="28" width="14" height="14" fill="#44444f"/>
<rect x="658" y="28" width="14" height="14" fill="#44444f"/>
<rect x="672" y="28" width="14" height="14" fill="#44444f"/>
<rect x="560" y="42" width="14" height="14" fill="#44444f"/>
<rect x="574" y="42" width="14" height="14" fill="#44444f"/>
<rect x="588" y="42" width="14" height="14" fill="#44444f"/>
<rect x="602" y="42" width="14" height="14" fill="#44444f"/>
<rect x="616" y="42" width="14" height="14" fill="#44444f"/>
<rect x="630" y="42" width="14" height="14" fill="#44444f"/>
<rect x="644" y="42" width="14" height="14" fill="#44444f"/>
<rect x="658" y="42" width="14" height="14" fill="#f2f2f5"/>
<rect x="672" y="42" width="14" height="14" fill="#44444f"/>
<rect x="560" y="56" width="14" height="14" fill="#44444f"/>
<rect x="574" y="56" width="14" height="14" fill="#44444f"/>
<rect x="588" y="56" width="14" height="14" fill="#44444f"/>
<rect x="602" y="56" width="14" height="14" fill="#44444f"/>
<rect x="616" y="56" width="14" height="14" fill="#44444f"/>
<rect x="630" y="56" width="14" height="14" fill="#44444f"/>
<rect x="644" y="56" width="14" height="14" fill="#44444f"/>
<rect x="658" y="56" width="14" height="14" fill="#44444f"/>
<rect x="672" y="56" width="14" height="14" fill="#44444f"/>
<rect x="560" y="70" width="14" height="14" fill="#44444f"/>
<rect x="574" y="70" width="14" height="14" fill="#44444f"/>
<rect x="588" y="70" width="14" height="14" fill="#44444f"/>
<rect x="602" y="70" width="14" height="14" fill="#44444f"/>
<rect x="616" y="70" width="14" height="14" fill="#44444f"/>
<rect x="630" y="70" width="14" height="14" fill="#44444f"/>
<rect x="644" y="70" width="14" height="14" fill="#44444f"/>
<rect x="658" y="70" width="14" height="14" fill="#f2f2f5"/>
<rect x="672" y="70" width="14" height="14" fill="#44444f"/>
<rect x="560" y="84" width="14" height="14" fill="#44444f"/>
<rect x="574" y="84" width="14" height="14" fill="#44444f"/>
<rect x="588" y="84" width="14" height="14" fill="#44444f"/>
<rect x="602" y="84" width="14" height="14" fill="#44444f"/>
<rect x="616" y="84" width="14" height="14" fill="#44444f"/>
<rect x="630" y="84" width="14" height="14" fill="#44444f"/>
<rect x="644" y="84" width="14" height="14" fill="#44444f"/>
<rect x="658" y="84" width="14" height="14" fill="#44444f"/>
<rect x="672" y="84" width="14" height="14" fill="#44444f"/>
<rect x="560" y="98" width="14" height="14" fill="#44444f"/>
<rect x="574" y="98" width="14" height="14" fill="#44444f"/>
<rect x="588" y="98" width="14" height="14" fill="#44444f"/>
<rect x="602" y="98" width="14" height="14" fill="#f2f2f5"/>
<rect x="616" y="98" width="14" height="14" fill="#44444f"/>
<rect x="630" y="98" width="14" height="14" fill="#f2f2f5"/>
<rect x="644" y="98" width="14" height="14" fill="#44444f"/>
<rect x="658" y="98" width="14" height="14" fill="#f2f2f5"/>
<rect x="672" y="98" width="14" height="14" fill="#44444f"/>
<rect x="560" y="112" width="14" height="14" fill="#44444f"/>
<rect x="574" y="112" width="14" height="14" fill="#44444f"/>
<rect x="588" y="112" width="14" height="14" fill="#44444f"/>
<rect x="602" y="112" width="14" height="14" fill="#44444f"/>
<rect x="616" y="112" width="14" height="14" fill="#44444f"/>
<rect x="630" y="112" width="14" height="14" fill="#44444f"/>
<rect x="644" y="112" width="14" height="14" fill="#44444f"/>
<rect x="658" y="112" width="14" height="14" fill="#44444f"/>
<rect x="672" y="112" width="14" height="14" fill="#44444f"/>
<rect x="700" y="0" width="14" height="14" fill="#44444f"/>
<rect x="714" y="0" width="14" height="14" fill="#44444f"/>
<rect x="728" y="0" width="14" height="14" fill="#44444f"/>
<rect x="742" y="0" width="14" height="14" fill="#44444f"/>
<rect x="756" y="0" width="14" height="14" fill="#44444f"/>
<rect x="770" y="0" width="14" height="14" fill="#44444f"/>
<rect x="784" y="0" width="14" height="14" fill="#44444f"/>
<rect x="798" y="0" width="14" height="14" fill="#44444f"/>
<rect x="812" y="0" width="14" height="14" fill="#44444f"/>
<rect x="700" y="14" width="14" height="14" fill="#44444f"/>
<rect x="714" y="14" width="14" height="14" fill="#f2f2f5"/>
<rect x="728" y="14" width="14" height="14" fill="#f2f2f5"/>
<rect x="742" y="14" width="14" height="14" fill="#f2f2f5"/>
<rect x="756" y="14" width="14" height="14" fill="#44444f"/>
<rect x="770" y="14" width="14" height="14" fill="#f2f2f5"/>
<rect x="784" y="14" width="14" height="14" fill="#44444f"/>
<rect x="798" y="14" width="14" height="14" fill="#f2f2f5"/>
<rect x="812" y="14" width="14" height="14" fill="#44444f"/>
<rect x="700" y="28" width="14" height="14" fill="#44444f"/>
<rect x="714" y="28" width="14" height="14" fill="#44444f"/>
<rect x="728" y="28" width="14" height="14" fill="#44444f"/>
<rect x="742" y="28" width="14" height="14" fill="#44444f"/>
<rect x="756" y="28" width="14" height="14" fill="#44444f"/>
<rect x="770" y="28" width="14" height="14" fill="#f2f2f5"/>
<rect x="784" y="28" width="14" height="14" fill="#44444f"/>
<rect x="798" y="28" width="14" height="14" fill="#f2f2f5"/>
<rect x="812" y="28" width="14" height="14" fill="#44444f"/>
<rect x="700" y="42" width="14" height="14" fill="#44444f"/>
<rect x="714" y="42" width="14" height="14" fill="#f2f2f5"/>
<rect x="728" y="42" width="14" height="14" fill="#f2f2f5"/>
<rect x="742" y="42" width="14" height="14" fill="#f2f2f5"/>
<rect x="756" y="42" width="14" height="14" fill="#f2f2f5"/>
<rect x="770" y="42" width="14" height="14" fill="#f2f2f5"/>
<rect x="784" y="42" width="14" height="14" fill="#44444f"/>
<rect x="798" y="42" width="14" height="14" fill="#f2f2f5"/>
<rect x="812" y="42" width="14" height="14" fill="#44444f"/>
<rect x="700" y="56" width="14" height="14" fill="#44444f"/>
<rect x="714" y="56" width="14" height="14" fill="#f2f2f5"/>
<rect x="728" y="56" width="14" height="14" fill="#44444f"/>
<rect x="742" y="56" width="14" height="14" fill="#44444f"/>
<rect x="756" y="56" width="14" height="14" fill="#44444f"/>
<rect x="770" y="56" width="14" height="14" fill="#44444f"/>
<rect x="784" y="56" width="14" height="14" fill="#44444f"/>
<rect x="798" y="56" width="14" height="14" fill="#44444f"/>
<rect x="812" y="56" width="14" height="14" fill="#44444f"/>
<rect x="700" y="70" width="14" height="14" fill="#44444f"/>
<rect x="714" y="70" width="14" height="14" fill="#f2f2f5"/>
<rect x="728" y="70" width="14" height="14" fill="#44444f"/>
<rect x="742" y="70" width="14" height="14" fill="#f2f2f5"/>
<rect x="756" y="70" width="14" height="14" fill="#f2f2f5"/>
<rect x="770" y="70" width="14" height="14" fill="#f2f2f5"/>
<rect x="784" y="70" width="14" height="14" fill="#f2f2f5"/>
<rect x="798" y="70" width="14" height="14" fill="#f2f2f5"/>
<rect x="812" y="70" width="14" height="14" fill="#44444f"/>
<rect x="700" y="84" width="14" height="14" fill="#44444f"/>
<rect x="714" y="84" width="14" height="14" fill="#44444f"/>
<rect x="728" y="84" width="14" height="14" fill="#44444f"/>
<rect x="742" y="84" width="14" height="14" fill="#44444f"/>
<rect x="756" y="84" width="14" height="14" fill="#44444f"/>
<rect x="770" y="84" width="14" height="14" fill="#44444f"/>
<rect x="784" y="84" width="14" height="14" fill="#44444f"/>
<rect x="798" y="84" width="14" height="14" fill="#44444f"/>
<rect x="812" y="84" width="14" height="14" fill="#44444f"/>
<rect x="700" y="98" width="14" height="14" fill="#44444f"/>
<rect x="714" y="98" width="14" height="14" fill="#f2f2f5"/>
<rect x="728" y="98" width="14" height="14" fill="#f2f2f5"/>
<rect x="742" y="98" width="14" height="14" fill="#f2f2f5"/>
<rect x="756" y="98" width="14" height="14" fill="#44444f"/>
<rect x="770" y="98" width="14" height="14" fill="#f2f2f5"/>
<rect x="784" y="98" width="14" height="14" fill="#44444f"/>
<rect x="798" y="98" width="14" height="14" fill="#f2f2f5"/>
<rect x="812" y="98" width="14" height="14" fill="#44444f"/>
<rect x="700" y="112" width="14" height="14" fill="#44444f"/>
<rect x="714" y="112" width="14" height="14" fill="#44444f"/>
<rect x="728" y="112" width="14" height="14" fill="#44444f"/>
<rect x="742" y="112" width="14" height="14" fill="#44444f"/>
<rect x="756" y="112" width="14" height="14" fill="#44444f"/>
<rect x="770" y="112" width="14" height="14" fill="#44444f"/>
<rect x="784" y="112" width="14" height="14" fill="#44444f"/>
<rect x="798" y="112" width="14" height="14" fill="#44444f"/>
<rect x="812" y="112" width="14" height="14" fill="#44444f"/>
<rect x="840" y="0" width="14" height="14" fill="#44444f"/>
<rect x="854" y="0" width="14" height="14" fill="#44444f"/>
<rect x="868" y="0" width="14" height="14" fill="#44444f"/>
<rect x="882" y="0" width="14" height="14" fill="#44444f"/>
<rect x="896" y="0" width="14" height="14" fill="#44444f"/>
<rect x="910" y="0" width="14" height="14" fill="#44444f"/>
<rect x="924" y="0" width="14" height="14" fill="#44444f"/>
<rect x="938" y="0" width="14" height="14" fill="#44444f"/>
<rect x="952" y="0" width="14" height="14" fill="#44444f"/>
<rect x="840" y="14" width="14" height="14" fill="#44444f"/>
<rect x="854" y="14" width="14" height="14" fill="#44444f"/>
<rect x="868" y="14" width="14" height="14" fill="#44444f"/>
<rect x="882" y="14" width="14" height="14" fill="#44444f"/>
<rect x="896" y="14" width="14" height="14" fill="#44444f"/>
<rect x="910" y="14" width="14" height="14" fill="#44444f"/>
<rect x="924" y="14" width="14" height="14" fill="#44444f"/>
<rect x="938" y="14" width="14" height="14" fill="#f2f2f5"/>
<rect x="952" y="14" width="14" height="14" fill="#44444f"/>
<rect x="840" y="28" width="14" height="14" fill="#44444f"/>
<rect x="854" y="28" width="14" height="14" fill="#44444f"/>
<rect x="868" y="28" width="14" height="14" fill="#44444f"/>
<rect x="882" y="28" width="14" height="14" fill="#44444f"/>
<rect x="896" y="28" width="14" height="14" fill="#44444f"/>
<rect x="910" y="28" width="14" height="14" fill="#44444f"/>
<rect x="924" y="28" width="14" height="14" fill="#44444f"/>
<rect x="938" y="28" width="14" height="14" fill="#44444f"/>
<rect x="952" y="28" width="14" height="14" fill="#44444f"/>
<rect x="840" y="42" width="14" height="14" fill="#44444f"/>
<rect x="854" y="42" width="14" height="14" fill="#44444f"/>
<rect x="868" y="42" width="14" height="14" fill="#44444f"/>
<rect x="882" y="42" width="14" height="14" fill="#44444f"/>
<rect x="896" y="42" width="14" height="14" fill="#44444f"/>
<rect x="910" y="42" width="14" height="14" fill="#44444f"/>
<rect x="924" y="42" width="14" height="14" fill="#44444f"/>
<rect x="938" y="42" width="14" height="14" fill="#44444f"/>
<rect x="952" y="42" width="14" height="14" fill="#44444f"/>
<rect x="840" y="56" width="14" height="14" fill="#44444f"/>
<rect x="854" y="56" width="14" height="14" fill="#44444f"/>
<rect x="868" y="56" width="14" height="14" fill="#44444f"/>
<rect x="882" y="56" width="14" height="14" fill="#44444f"/>
<rect x="896" y="56" width="14" height="14" fill="#44444f"/>
<rect x="910" y="56" width="14" height="14" fill="#44444f"/>
<rect x="924" y="56" width="14" height="14" fill="#44444f"/>
<rect x="938" y="56" width="14" height="14" fill="#44444f"/>
<rect x="952" y="56" width="14" height="14" fill="#44444f"/>
<rect x="840" y="70" width="14" height="14" fill="#44444f"/>
<rect x="854" y="70" width="14" height="14" fill="#f2f2f5"/>
<rect x="868" y="70" width="14" height="14" fill="#44444f"/>
<rect x="882" y="70" width="14" height="14" fill="#f2f2f5"/>
<rect x="896" y="70" width="14" height="14" fill="#44444f"/>
<rect x="910" y="70" width="14" height="14" fill="#44444f"/>
<rect x="924" y="70" width="14" height="14" fill="#44444f"/>
<rect x="938" y="70" width="14" height="14" fill="#f2f2f5"/>
<rect x="952" y="70" width="14" height="14" fill="#44444f"/>
<rect x="840" y="84" width="14" height="14" fill="#44444f"/>
<rect x="854" y="84" width="14" height="14" fill="#44444f"/>
<rect x="868" y="84" width="14" height="14" fill="#44444f"/>
<rect x="882" y="84" width="14" height="14" fill="#44444f"/>
<rect x="896" y="84" width="14" height="14" fill="#44444f"/>
<rect x="910" y="84" width="14" height="14" fill="#44444f"/>
<rect x="924" y="84" width="14" height="14" fill="#44444f"/>
<rect x="938" y="84" width="14" height="14" fill="#44444f"/>
<rect x="952" y="84" width="14" height="14" fill="#44444f"/>
<rect x="840" y="98" width="14" height="14" fill="#44444f"/>
<rect x="854" y="98" width="14" height="14" fill="#f2f2f5"/>
<rect x="868" y="98" width="14" height="14" fill="#44444f"/>
<rect x="882" y="98" width="14" height="14" fill="#44444f"/>
<rect x="896" y="98" width="14" height="14" fill="#44444f"/>
<rect x="910" y="98" width="14" height="14" fill="#f2f2f5"/>
<rect x="924" y="98" width="14" height="14" fill="#44444f"/>
<rect x="938" y="98" width="14" height="14" fill="#f2f2f5"/>
<rect x="952" y="98" width="14" height="14" fill="#44444f"/>
<rect x="840" y="112" width="14" height="14" fill="#44444f"/>
<rect x="854" y="112" width="14" height="14" fill="#44444f"/>
<rect x="868" y="112" width="14" height="14" fill="#44444f"/>
<rect x="882" y="112" width="14" height="14" fill="#44444f"/>
<rect x="896" y="112" width="14" height="14" fill="#44444f"/>
<rect x="910" y="112" width="14" height="14" fill="#44444f"/>
<rect x="924" y="112" width="14" height="14" fill="#44444f"/>
<rect x="938" y="112" width="14" height="14" fill="#44444f"/>
<rect x="952" y="112" width="14" height="14" fill="#44444f"/>
<rect x="980" y="0" width="14" height="14" fill="#44444f"/>
<rect x="994" y="0" width="14" height="14" fill="#44444f"/>
<rect x="1008" y="0" width="14" height="14" fill="#44444f"/>
<rect x="1022" y="0" width="14" height="14" fill="#44444f"/>
<rect x="1036" y="0" width="14" height="14" fill="#44444f"/>
<rect x="1050" y="0" width="14" height="14" fill="#44444f"/>
<rect x="1064" y="0" width="14" height="14" fill="#44444f"/>
<rect x="1078" y="0" width="14" height="14" fill="#44444f"/>
<rect x="1092" y="0" width="14" height="14" fill="#44444f"/>
<rect x="980" y="14" width="14" height="14" fill="#44444f"/>
<rect x="994" y="14" width="14" height="14" fill="#f2f2f5"/>
<rect x="1008" y="14" width="14" height="14" fill="#f2f2f5"/>
<rect x="1022" y="14" width="14" height="14" fill="#f2f2f5"/>
<rect x="1036" y="14" width="14" height="14" fill="#f2f2f5"/>
<rect x="1050" y="14" width="14" height="14" fill="#f2f2f5"/>
<rect x="1064" y="14" width="14" height="14" fill="#44444f"/>
<rect x="1078" y="14" width="14" height="14" fill="#f2f2f5"/>
<rect x="1092" y="14" width="14" height="14" fill="#44444f"/>
<rect x="980" y="28" width="14" height="14" fill="#44444f"/>
<rect x="994" y="28" width="14" height="14" fill="#44444f"/>
<rect x="1008" y="28" width="14" height="14" fill="#44444f"/>
<rect x="1022" y="28" width="14" height="14" fill="#f2f2f5"/>
<rect x="1036" y="28" width="14" height="14" fill="#44444f"/>
<rect x="1050" y="28" width="14" height="14" fill="#f2f2f5"/>
<rect x="1064" y="28" width="14" height="14" fill="#44444f"/>
<rect x="1078" y="28" width="14" height="14" fill="#f2f2f5"/>
<rect x="1092" y="28" width="14" height="14" fill="#44444f"/>
<rect x="980" y="42" width="14" height="14" fill="#44444f"/>
<rect x="994" y="42" width="14" height="14" fill="#f2f2f5"/>
<rect x="1008" y="42" width="14" height="14" fill="#f2f2f5"/>
<rect x="1022" y="42" width="14" height="14" fill="#f2f2f5"/>
<rect x="1036" y="42" width="14" height="14" fill="#44444f"/>
<rect x="1050" y="42" width="14" height="14" fill="#f2f2f5"/>
<rect x="1064" y="42" width="14" height="14" fill="#f2f2f5"/>
<rect x="1078" y="42" width="14" height="14" fill="#f2f2f5"/>
<rect x="1092" y="42" width="14" height="14" fill="#44444f"/>
<rect x="980" y="56" width="14" height="14" fill="#44444f"/>
<rect x="994" y="56" width="14" height="14" fill="#f2f2f5"/>
<rect x="1008" y="56" width="14" height="14" fill="#44444f"/>
<rect x="1022" y="56" width="14" height="14" fill="#44444f"/>
<rect x="1036" y="56" width="14" height="14" fill="#44444f"/>
<rect x="1050" y="56" width="14" height="14" fill="#44444f"/>
<rect x="1064" y="56" width="14" height="14" fill="#44444f"/>
<rect x="1078" y="56" width="14" height="14" fill="#44444f"/>
<rect x="1092" y="56" width="14" height="14" fill="#44444f"/>
<rect x="980" y="70" width="14" height="14" fill="#44444f"/>
<rect x="994" y="70" width="14" height="14" fill="#f2f2f5"/>
<rect x="1008" y="70" width="14" height="14" fill="#44444f"/>
<rect x="1022" y="70" width="14" height="14" fill="#f2f2f5"/>
<rect x="1036" y="70" width="14" height="14" fill="#44444f"/>
<rect x="1050" y="70" width="14" height="14" fill="#3498db"/>
<rect x="1064" y="70" width="14" height="14" fill="#f2f2f5"/>
<rect x="1078" y="70" width="14" height="14" fill="#f2f2f5"/>
<rect x="1092" y="70" width="14" height="14" fill="#44444f"/>
<rect x="980" y="84" width="14" height="14" fill="#44444f"/>
<rect x="994" y="84" width="14" height="14" fill="#44444f"/>
<rect x="1008" y="84" width="14" height="14" fill="#44444f"/>
<rect x="1022" y="84" width="14" height="14" fill="#f2f2f5"/>
<rect x="1036" y="84" width="14" height="14" fill="#44444f"/>
<rect x="1050" y="84" width="14" height="14" fill="#f2f2f5"/>
<rect x="1064" y="84" width="14" height="14" fill="#44444f"/>
<rect x="1078" y="84" width="14" height="14" fill="#44444f"/>
<rect x="1092" y="84" width="14" height="14" fill="#44444f"/>
<rect x="980" y="98" width="14" height="14" fill="#44444f"/>
<rect x="994" y="98" width="14" height="14" fill="#f2f2f5"/>
<rect x="1008" y="98" width="14" height="14" fill="#f2f2f5"/>
<rect x="1022" y="98" width="14" height="14" fill="#f2f2f5"/>
<rect x="1036" y="98" width="14" height="14" fill="#44444f"/>
<rect x="1050" y="98" width="14" height="14" fill="#f2f2f5"/>
<rect x="1064" y="98" width="14" height="14" fill="#44444f"/>
<rect x="1078" y="98" width="14" height="14" fill="#f2f2f5"/>
<rect x="1092" y="98" width="14" height="14" fill="#44444f"/>
<rect x="980" y="112" width="14" height="14" fill="#44444f"/>
<rect x="994" y="112" width="14" height="14" fill="#44444f"/>
<rect x="1008" y="112" width="14" height="14" fill="#44444f"/>
<rect x="1022" y="112" width="14" height="14" fill="#44444f"/>
<rect x="1036" y="112" width="14" height="14" fill="#44444f"/>
<rect x="1050" y="112" width="14" height="14" fill="#44444f"/>
<rect x="1064" y="112" width="14" height="14" fill="#44444f"/>
<rect x="1078" y="112" width="14" height="14" fill="#44444f"/>
<rect x="1092" y="112" width="14" height="14" fill="#44444f"/>
<rect x="1120" y="0" width="14" height="14" fill="#44444f"/>
<rect x="1134" y="0" width="14" height="14" fill="#44444f"/>
<rect x="1148" y="0" width="14" height="14" fill="#44444f"/>
<rect x="1162" y="0" width="14" height="14" fill="#44444f"/>
<rect x="1176" y="0" width="14" height="14" fill="#44444f"/>
<rect x="1190" y="0" width="14" height="14" fill="#44444f"/>
<rect x="1204" y="0" width="14" height="14" fill="#44444f"/>
<rect x="1218" y="0" width="14" height="14" fill="#44444f"/>
<rect x="1232" y="0" width="14" height="14" fill="#44444f"/>
<rect x="1120" y="14" width="14" height="14" fill="#44444f"/>
<rect x="1134" y="14" width="14" height="14" fill="#44444f"/>
<rect x="1148" y="14" width="14" height="14" fill="#44444f"/>
<rect x="1162" y="14" width="14" height="14" fill="#44444f"/>
<rect x="1176" y="14" width="14" height="14" fill="#44444f"/>
<rect x="1190" y="14" width="14" height="14" fill="#44444f"/>
<rect x="1204" y="14" width="14" height="14" fill="#44444f"/>
<rect x="1218" y="14" width="14" height="14" fill="#44444f"/>
<rect x="1232" y="14" width="14" height="14" fill="#44444f"/>
<rect x="1120" y="28" width="14" height="14" fill="#44444f"/>
<rect x="1134" y="28" width="14" height="14" fill="#44444f"/>
<rect x="1148" y="28" width="14" height="14" fill="#44444f"/>
<rect x="1162" y="28" width="14" height="14" fill="#44444f"/>
<rect x="1176" y="28" width="14" height="14" fill="#44444f"/>
<rect x="1190" y="28" width="14" height="14" fill="#44444f"/>
<rect x="1204" y="28" width="14" height="14" fill="#44444f"/>
<rect x="1218" y="28" width="14" height="14" fill="#44444f"/>
<rect x="1232" y="28" width="14" height="14" fill="#44444f"/>
<rect x="1120" y="42" width="14" height="14" fill="#44444f"/>
<rect x="1134" y="42" width="14" height="14" fill="#44444f"/>
<rect x="1148" y="42" width="14" height="14" fill="#44444f"/>
<rect x="1162" y="42" width="14" height="14" fill="#44444f"/>
<rect x="1176" y="42" width="14" height="14" fill="#44444f"/>
<rect x="1190" y="42" width="14" height="14" fill="#44444f"/>
<rect x="1204" y="42" width="14" height="14" fill="#44444f"/>
<rect x="1218" y="42" width="14" height="14" fill="#44444f"/>
<rect x="1232" y="42" width="14" height="14" fill="#44444f"/>
<rect x="1120" y="56" width="14" height="14" fill="#44444f"/>
<rect x="1134" y="56" width="14" height="14" fill="#44444f"/>
<rect x="1148" y="56" width="14" height="14" fill="#44444f"/>
<rect x="1162" y="56" width="14" height="14" fill="#44444f"/>
<rect x="1176" y="56" width="14" height="14" fill="#44444f"/>
<rect x="1190" y="56" width="14" height="14" fill="#44444f"/>
<rect x="1204" y="56" width="14" height="14" fill="#44444f"/>
<rect x="1218" y="56" width="14" height="14" fill="#44444f"/>
<rect x="1232" y="56" width="14" height="14" fill="#44444f"/>
<rect x="1120" y="70" width="14" height="14" fill="#44444f"/>
<rect x="1134" y="70" width="14" height="14" fill="#44444f"/>
<rect x="1148" y="70" width="14" height="14" fill="#44444f"/>
<rect x="1162" y="70" width="14" height="14" fill="#44444f"/>
<rect x="1176" y="70" width="14" height="14" fill="#44444f"/>
<rect x="1190" y="70" width="14" height="14" fill="#44444f"/>
<rect x="1204" y="70" width="14" height="14" fill="#44444f"/>
<rect x="1218" y="70" width="14" height="14" fill="#44444f"/>
<rect x="1232" y="70" width="14" height="14" fill="#44444f"/>
<rect x="1120" y="84" width="14" height="14" fill="#44444f"/>
<rect x="1134" y="84" width="14" height="14" fill="#44444f"/>
<rect x="1148" y="84" width="14" height="14" fill="#44444f"/>
<rect x="1162" y="84" width="14" height="14" fill="#44444f"/>
<rect x="1176" y="84" width="14" height="14" fill="#44444f"/>
<rect x="1190" y="84" width="14" height="14" fill="#44444f"/>
<rect x="1204" y="84" width="14" height="14" fill="#44444f"/>
<rect x="1218" y="84" width="14" height="14" fill="#44444f"/>
<rect x="1232" y="84" width="14" height="14" fill="#44444f"/>
<rect x="1120" y="98" width="14" height="14" fill="#44444f"/>
<rect x="1134" y="98" width="14" height="14" fill="#44444f"/>
<rect x="1148" y="98" width="14" height="14" fill="#44444f"/>
<rect x="1162" y="98" width="14" height="14" fill="#44444f"/>
<rect x="1176" y="98" width="14" height="14" fill="#44444f"/>
<rect x="1190" y="98" width="14" height="14" fill="#44444f"/>
<rect x="1204" y="98" width="14" height="14" fill="#44444f"/>
<rect x="1218" y="98" width="14" height="14" fill="#44444f"/>
<rect x="1232" y="98" width="14" height="14" fill="#44444f"/>
<rect x="1120" y="112" width="14" height="14" fill="#44444f"/>
<rect x="1134" y="112" width="14" height="14" fill="#44444f"/>
<rect x="1148" y="112" width="14" height="14" fill="#44444f"/>
<rect x="1162" y="112" width="14" height="14" fill="#44444f"/>
<rect x="1176" y="112" width="14" height="14" fill="#44444f"/>
<rect x="1190" y="112" width="14" height="14" fill="#44444f"/>
<rect x="1204" y="112" width="14" height="14" fill="#44444f"/>
<rect x="1218" y="112" width="14" height="14" fill="#44444f"/>
<rect x="1232" y="112" width="14" height="14" fill="#44444f"/>
</svg>