<svg xmlns="http://www.w3.org/2000/svg" viewBox="0 0 994 126" width="994" height="126" shape-rendering="crispEdges">
<rect width="100%" height="100%" fill="#1c1c24"/>
<text x="2" y="122" fill="#888899" font-size="11" font-family="monospace">z=0</text>
<text x="128" y="122" fill="#888899" font-size="11" font-family="monospace">z=1</text>
<text x="254" y="122" fill="#888899" font-size="11" font-family="monospace">z=2</text>
<text x="380" y="122" fill="#888899" font-size="11" font-family="monospace">z=3</text>
<text x="506" y="122" fill="#888899" font-size="11" font-family="monospace">z=4</text>
<text x="632" y="122" fill="#888899" font-size="11" font-family="monospace">z=5</text>
<text x="758" y="122" fill="#888899" font-size="11" font-family="monospace">z=6</text>
<text x="884" y="122" fill="#888899" font-size="11" font-family="monospace">z=7</text>
<rect x="0" y="0" width="14" height="14" fill="#f2f2f5"/>
<rect x="14" y="0" width="14" height="14" fill="#f2f2f5"/>
<rect x="28" y="0" width="14" height="14" fill="#f2f2f5"/>
<rect x="42" y="0" width="14" height="14" fill="#f2f2f5"/>
<rect x="56" y="0" width="14" height="14" fill="#f2f2f5"/>
<rect x="70" y="0" width="14" height="14" fill="#f2f2f5"/>
<rect x="84" y="0" width="14" height="14" fill="#f2f2f5"/>
<rect x="98" y="0" width="14" height="14" fill="#f2f2f5"/>
<rect x="0" y="14" width="14" height="14" fill="#f2f2f5"/>
<rect x="14" y="14" width="14" height="14" fill="#f2f2f5"/>
<rect x="28" y="14" width="14" height="14" fill="#f2f2f5"/>
<rect x="42" y="14" width="14" height="14" fill="#f2f2f5"/>
<rect x="56" y="14" width="14" height="14" fill="#f2f2f5"/>
<rect x="70" y="14" width="14" height="14" fill="#f2f2f5"/>
<rect x="84" y="14" width="14" height="14" fill="#f2f2f5"/>
<rect x="98" y="14" width="14" height="14" fill="#f2f2f5"/>
<rect x="0" y="28" width="14" height="14" fill="#f2f2f5"/>
<rect x="14" y="28" width="14" height="14" fill="#f2f2f5"/>
<rect x="28" y="28" width="14" height="14" fill="#f2f2f5"/>
<rect x="42" y="28" width="14" height="14" fill="#f2f2f5"/>
<rect x="56" y="28" width="14" height="14" fill="#f2f2f5"/>
<rect x="70" y="28" width="14" height="14" fill="#f2f2f5"/>
<rect x="84" y="28" width="14" height="14" fill="#f2f2f5"/>
<rect x="98" y="28" width="14" height="14" fill="#f2f2f5"/>
<rect x="0" y="42" width="14" height="14" fill="#f2f2f5"/>
<rect x="14" y="42" width="14" height="14" fill="#f2f2f5"/>
<rect x="28" y="42" width="14" height="14" fill="#f2f2f5"/>
<rect x="42" y="42" width="14" height="14" fill="#f2f2f5"/>
<rect x="56" y="42" width="14" height="14" fill="#f2f2f5"/>
<rect x="70" y="42" width="14" height="14" fill="#f2f2f5"/>
<rect x="84" y="42" width="14" height="14" fill="#f2f2f5"/>
<rect x="98" y="42" width="14" height="14" fill="#f2f2f5"/>
<rect x="0" y="56" width="14" height="14" fill="#f2f2f5"/>
<rect x="14" y="56" width="14" height="14" fill="#f2f2f5"/>
<rect x="28" y="56" width="14" height="14" fill="#f2f2f5"/>
<rect x="42" y="56" width="14" height="14" fill="#f2f2f5"/>
<rect x="56" y="56" width="14" height="14" fill="#f2f2f5"/>
<rect x="70" y="56" width="14" height="14" fill="#f2f2f5"/>
<rect x="84" y="56" width="14" height="14" fill="#f2f2f5"/>
<rect x="98" y="56" width="14" height="14" fill="#f2f2f5"/>
<rect x="0" y="70" width="14" height="14" fill="#f2f2f5"/>
<rect x="14" y="70" width="14" height="14" fill="#f2f2f5"/>
<rect x="28" y="70" width="14" height="14" fill="#f2f2f5"/>
<rect x="42" y="70" width="14" height="14" fill="#f2f2f5"/>
<rect x="56" y="70" width="14" height="14" fill="#f2f2f5"/>
<rect x="70" y="70" width="14" height="14" fill="#f2f2f5"/>
<rect x="84" y="70" width="14" height="14" fill="#f2f2f5"/>
<rect x="98" y="70" width="14" height="14" fill="#f2f2f5"/>
<rect x="0" y="84" width="14" height="14" fill="#f2f2f5"/>
<rect x="14" y="84" width="14" height="14" fill="#f2f2f5"/>
<rect x="28" y="84" width="14" height="14" fill="#f2f2f5"/>
<rect x="42" y="84" width="14" height="14" fill="#f2f2f5"/>
<rect x="56" y="84" width="14" height="14" fill="#f2f2f5"/>
<rect x="70" y="84" width="14" height="14" fill="#f2f2f5"/>
<rect x="84" y="84" width="14" height="14" fill="#f2f2f5"/>
<rect x="98" y="84" width="14" height="14" fill="#f2f2f5"/>
<rect x="0" y="98" width="14" height="14" fill="#f2f2f5"/>
<rect x="14" y="98" width="14" height="14" fill="#f2f2f5"/>
<rect x="28" y="98" width="14" height="14" fill="#f2f2f5"/>
<rect x="42" y="98" width="14" height="14" fill="#f2f2f5"/>
<rect x="56" y="98" width="14" height="14" fill="#f2f2f5"/>
<rect x="70" y="98" width="14" height="14" fill="#f2f2f5"/>
<rect x="84" y="98" width="14" height="14" fill="#f2f2f5"/>
<rect x="98" y="98" width="14" height="14" fill="#f2f2f5"/>
<rect x="126" y="0" width="14" height="14" fill="#f2f2f5"/>
<rect x="140" y="0" width="14" height="14" fill="#f2f2f5"/>
<rect x="154" y="0" width="14" height="14" fill="#f2f2f5"/>
<rect x="168" y="0" width="14" height="14" fill="#f2f2f5"/>
<rect x="182" y="0" width="14" height="14" fill="#f2f2f5"/>
<rect x="196" y="0" width="14" height="14" fill="#f2f2f5"/>
<rect x="210" y="0" width="14" height="14" fill="#f2f2f5"/>
<rect x="224" y="0" width="14" height="14" fill="#f2f2f5"/>
<rect x="126" y="14" width="14" height="14" fill="#f2f2f5"/>
<rect x="140" y="14" width="14" height="14" fill="#f2f2f5"/>
<rect x="154" y="14" width="14" height="14" fill="#f2f2f5"/>
<rect x="168" y="14" width="14" height="14" fill="#3498db"/>
<rect x="182" y="14" width="14" height="14" fill="#f2f2f5"/>
<rect x="196" y="14" width="14" height="14" fill="#f2f2f5"/>
<rect x="210" y="14" width="14" height="14" fill="#f2f2f5"/>
<rect x="224" y="14" width="14" height="14" fill="#f2f2f5"/>
<rect x="126" y="28" width="14" height="14" fill="#f2f2f5"/>
<rect x="140" y="28" width="14" height="14" fill="#f2f2f5"/>
<rect x="154" y="28" width="14" height="14" fill="#f2f2f5"/>
<rect x="168" y="28" width="14" height="14" fill="#f2f2f5"/>
<rect x="182" y="28" width="14" height="14" fill="#f2f2f5"/>
<rect x="196" y="28" width="14" height="14" fill="#f2f2f5"/>
<rect x="210" y="28" width="14" height="14" fill="#f2f2f5"/>
<rect x="224" y="28" width="14" height="14" fill="#f2f2f5"/>
<rect x="126" y="42" width="14" height="14" fill="#f2f2f5"/>
<rect x="140" y="42" width="14" height="14" fill="#f2f2f5"/>
<rect x="154" y="42" width="14" height="14" fill="#f2f2f5"/>
<rect x="168" y="42" width="14" height="14" fill="#f2f2f5"/>
<rect x="182" y="42" width="14" height="14" fill="#f2f2f5"/>
<rect x="196" y="42" width="14" height="14" fill="#f2f2f5"/>
<rect x="210" y="42" width="14" height="14" fill="#f2f2f5"/>
<rect x="224" y="42" width="14" height="14" fill="#f2f2f5"/>
<rect x="126" y="56" width="14" height="14" fill="#f2f2f5"/>
<rect x="140" y="56" width="14" height="14" fill="#f2f2f5"/>
<rect x="154" y="56" width="14" height="14" fill="#f2f2f5"/>
<rect x="168" y="56" width="14" height="14" fill="#f2f2f5"/>
<rect x="182" y="56" width="14" height="14" fill="#f2f2f5"/>
<rect x="196" y="56" width="14" height="14" fill="#f2f2f5"/>
<rect x="210" y="56" width="14" height="14" fill="#f2f2f5"/>
<rect x="224" y="56" width="14" height="14" fill="#f2f2f5"/>
<rect x="126" y="70" width="14" height="14" fill="#f2f2f5"/>
<rect x="140" y="70" width="14" height="14" fill="#f2f2f5"/>
<rect x="154" y="70" width="14" height="14" fill="#f2f2f5"/>
<rect x="168" y="70" width="14" height="14" fill="#f2f2f5"/>
<rect x="182" y="70" width="14" height="14" fill="#f2f2f5"/>
<rect x="196" y="70" width="14" height="14" fill="#f2f2f5"/>
<rect x="210" y="70" width="14" height="14" fill="#f2f2f5"/>
<rect x="224" y="70" width="14" height="14" fill="#f2f2f5"/>
<rect x="126" y="84" width="14" height="14" fill="#f2f2f5"/>
<rect x="140" y="84" width="14" height="14" fill="#f2f2f5"/>
<rect x="154" y="84" width="14" height="14" fill="#f2f2f5"/>
<rect x="168" y="84" width="14" height="14" fill="#f2f2f5"/>
<rect x="182" y="84" width="14" height="14" fill="#f2f2f5"/>
<rect x="196" y="84" width="14" height="14" fill="#f2f2f5"/>
<rect x="210" y="84" width="14" height="14" fill="#f2f2f5"/>
<rect x="224" y="84" width="14" height="14" fill="#f2f2f5"/>
<rect x="126" y="98" width="14" height="14" fill="#f2f2f5"/>
<rect x="140" y="98" width="14" height="14" fill="#f2f2f5"/>
<rect x="154" y="98" width="14" height="14" fill="#f2f2f5"/>
<rect x="168" y="98" width="14" height="14" fill="#f2f2f5"/>
<rect x="182" y="98" width="14" height="14" fill="#f2f2f5"/>
<rect x="196" y="98" width="14" height="14" fill="#f2f2f5"/>
<rect x="210" y="98" width="14" height="14" fill="#f2f2f5"/>
<rect x="224" y="98" width="14" height="14" fill="#f2f2f5"/>
<rect x="252" y="0" width="14" height="14" fill="#f2f2f5"/>
<rect x="266" y="0" width="14" height="14" fill="#f2f2f5"/>
<rect x="280" y="0" width="14" height="14" fill="#f2f2f5"/>
<rect x="294" y="0" width="14" height="14" fill="#f2f2f5"/>
<rect x="308" y="0" width="14" height="14" fill="#f2f2f5"/>
<rect x="322" y="0" width="14" height="14" fill="#f2f2f5"/>
<rect x="336" y="0" width="14" height="14" fill="#f2f2f5"/>
<rect x="350" y="0" width="14" height="14" fill="#f2f2f5"/>
<rect x="252" y="14" width="14" height="14" fill="#f2f2f5"/>
<rect x="266" y="14" width="14" height="14" fill="#f2f2f5"/>
<rect x="280" y="14" width="14" height="14" fill="#f2f2f5"/>
<rect x="294" y="14" width="14" height="14" fill="#f2f2f5"/>
<rect x="308" y="14" width="14" height="14" fill="#f2f2f5"/>
<rect x="322" y="14" width="14" height="14" fill="#f2f2f5"/>
<rect x="336" y="14" width="14" height="14" fill="#f2f2f5"/>
<rect x="350" y="14" width="14" height="14" fill="#f2f2f5"/>
<rect x="252" y="28" width="14" height="14" fill="#f2f2f5"/>
<rect x="266" y="28" width="14" height="14" fill="#f2f2f5"/>
<rect x="280" y="28" width="14" height="14" fill="#f2f2f5"/>
<rect x="294" y="28" width="14" height="14" fill="#f2f2f5"/>
<rect x="308" y="28" width="14" height="14" fill="#f2f2f5"/>
<rect x="322" y="28" width="14" height="14" fill="#f2f2f5"/>
<rect x="336" y="28" width="14" height="14" fill="#f2f2f5"/>
<rect x="350" y="28" width="14" height="14" fill="#f2f2f5"/>
<rect x="252" y="42" width="14" height="14" fill="#f2f2f5"/>
<rect x="266" y="42" width="14" height="14" fill="#f2f2f5"/>
<rect x="280" y="42" width="14" height="14" fill="#f2f2f5"/>
<rect x="294" y="42" width="14" height="14" fill="#f2f2f5"/>
<rect x="308" y="42" width="14" height="14" fill="#f2f2f5"/>
<rect x="322" y="42" width="14" height="14" fill="#f2f2f5"/>
<rect x="336" y="42" width="14" height="14" fill="#f2f2f5"/>
<rect x="350" y="42" width="14" height="14" fill="#f2f2f5"/>
<rect x="252" y="56" width="14" height="14" fill="#f2f2f5"/>
<rect x="266" y="56" width="14" height="14" fill="#f2f2f5"/>
<rect x="280" y="56" width="14" height="14" fill="#f2f2f5"/>
<rect x="294" y="56" width="14" height="14" fill="#f2f2f5"/>
<rect x="308" y="56" width="14" height="14" fill="#f2f2f5"/>
<rect x="322" y="56" width="14" height="14" fill="#f2f2f5"/>
<rect x="336" y="56" width="14" height="14" fill="#f2f2f5"/>
<rect x="350" y="56" width="14" height="14" fill="#f2f2f5"/>
<rect x="252" y="70" width="14" height="14" fill="#f2f2f5"/>
<rect x="266" y="70" width="14" height="14" fill="#f2f2f5"/>
<rect x="280" y="70" width="14" height="14" fill="#f2f2f5"/>
<rect x="294" y="70" width="14" height="14" fill="#f2f2f5"/>
<rect x="308" y="70" width="14" height="14" fill="#f2f2f5"/>
<rect x="322" y="70" width="14" height="14" fill="#f2f2f5"/>
<rect x="336" y="70" width="14" height="14" fill="#f2f2f5"/>
<rect x="350" y="70" width="14" height="14" fill="#f2f2f5"/>
<rect x="252" y="84" width="14" height="14" fill="#f2f2f5"/>
<rect x="266" y="84" width="14" height="14" fill="#f2f2f5"/>
<rect x="280" y="84" width="14" height="14" fill="#f2f2f5"/>
<rect x="294" y="84" width="14" height="14" fill="#f2f2f5"/>
<rect x="308" y="84" width="14" height="14" fill="#f2f2f5"/>
<rect x="322" y="84" width="14" height="14" fill="#f2f2f5"/>
<rect x="336" y="84" width="14" height="14" fill="#f2f2f5"/>
<rect x="350" y="84" width="14" height="14" fill="#f2f2f5"/>
<rect x="252" y="98" width="14" height="14" fill="#f2f2f5"/>
<rect x="266" y="98" width="14" height="14" fill="#f2f2f5"/>
<rect x="280" y="98" width="14" height="14" fill="#f2f2f5"/>
<rect x="294" y="98" width="14" height="14" fill="#f2f2f5"/>
<rect x="308" y="98" width="14" height="14" fill="#f2f2f5"/>
<rect x="322" y="98" width="14" height="14" fill="#f2f2f5"/>
<rect x="336" y="98" width="14" height="14" fill="#f2f2f5"/>
<rect x="350" y="98" width="14" height="14" fill="#f2f2f5"/>
<rect x="378" y="0" width="14" height="14" fill="#f2f2f5"/>
<rect x="392" y="0" width="14" height="14" fill="#f2f2f5"/>
<rect x="406" y="0" width="14" height="14" fill="#f2f2f5"/>
<rect x="420" y="0" width="14" height="14" fill="#f2f2f5"/>
<rect x="434" y="0" width="14" height="14" fill="#f2f2f5"/>
<rect x="448" y="0" width="14" height="14" fill="#f2f2f5"/>
<rect x="462" y="0" width="14" height="14" fill="#f2f2f5"/>
<rect x="476" y="0" width="14" height="14" fill="#f2f2f5"/>
<rect x="378" y="14" width="14" height="14" fill="#f2f2f5"/>
<rect x="392" y="14" width="14" height="14" fill="#f2f2f5"/>
<rect x="406" y="14" width="14" height="14" fill="#f2f2f5"/>
<rect x="420" y="14" width="14" height="14" fill="#f2f2f5"/>
<rect x="434" y="14" width="14" height="14" fill="#f2f2f5"/>
<rect x="448" y="14" width="14" height="14" fill="#f2f2f5"/>
<rect x="462" y="14" width="14" height="14" fill="#f2f2f5"/>
<rect x="476" y="14" width="14" height="14" fill="#f2f2f5"/>
<rect x="378" y="28" width="14" height="14" fill="#f2f2f5"/>
<rect x="392" y="28" width="14" height="14" fill="#f2f2f5"/>
<rect x="406" y="28" width="14" height="14" fill="#f2f2f5"/>
<rect x="420" y="28" width="14" height="14" fill="#f2f2f5"/>
<rect x="434" y="28" width="14" height="14" fill="#f2f2f5"/>
<rect x="448" y="28" width="14" height="14" fill="#f2f2f5"/>
<rect x="462" y="28" width="14" height="14" fill="#f2f2f5"/>
<rect x="476" y="28" width="14" height="14" fill="#f2f2f5"/>
<rect x="378" y="42" width="14" height="14" fill="#f2f2f5"/>
<rect x="392" y="42" width="14" height="14" fill="#f2f2f5"/>
<rect x="406" y="42" width="14" height="14" fill="#f2f2f5"/>
<rect x="420" y="42" width="14" height="14" fill="#f2f2f5"/>
<rect x="434" y="42" width="14" height="14" fill="#f2f2f5"/>
<rect x="448" y="42" width="14" height="14" fill="#f2f2f5"/>
<rect x="462" y="42" width="14" height="14" fill="#f2f2f5"/>
<rect x="476" y="42" width="14" height="14" fill="#f2f2f5"/>
<rect x="378" y="56" width="14" height="14" fill="#f2f2f5"/>
<rect x="392" y="56" width="14" height="14" fill="#f2f2f5"/>
<rect x="406" y="56" width="14" height="14" fill="#f2f2f5"/>
<rect x="420" y="56" width="14" height="14" fill="#f2f2f5"/>
<rect x="434" y="56" width="14" height="14" fill="#f2f2f5"/>
<rect x="448" y="56" width="14" height="14" fill="#f2f2f5"/>
<rect x="462" y="56" width="14" height="14" fill="#f2f2f5"/>
<rect x="476" y="56" width="14" height="14" fill="#f2f2f5"/>
<rect x="378" y="70" width="14" height="14" fill="#f2f2f5"/>
<rect x="392" y="70" width="14" height="14" fill="#f2f2f5"/>
<rect x="406" y="70" width="14" height="14" fill="#f2f2f5"/>
<rect x="420" y="70" width="14" height="14" fill="#f2f2f5"/>
<rect x="434" y="70" width="14" height="14" fill="#f2f2f5"/>
<rect x="448" y="70" width="14" height="14" fill="#f2f2f5"/>
<rect x="462" y="70" width="14" height="14" fill="#f2f2f5"/>
<rect x="476" y="70" width="14" height="14" fill="#f2f2f5"/>
<rect x="378" y="84" width="14" height="14" fill="#f2f2f5"/>
<rect x="392" y="84" width="14" height="14" fill="#f2f2f5"/>
<rect x="406" y="84" width="14" height="14" fill="#f2f2f5"/>
<rect x="420" y="84" width="14" height="14" fill="#f2f2f5"/>
<rect x="434" y="84" width="14" height="14" fill="#f2f2f5"/>
<rect x="448" y="84" width="14" height="14" fill="#f2f2f5"/>
<rect x="462" y="84" width="14" height="14" fill="#f2f2f5"/>
<rect x="476" y="84" width="14" height="14" fill="#f2f2f5"/>
<rect x="378" y="98" width="14" height="14" fill="#f2f2f5"/>
<rect x="392" y="98" width="14" height="14" fill="#f2f2f5"/>
<rect x="406" y="98" width="14" height="14" fill="#f2f2f5"/>
<rect x="420" y="98" width="14" height="14" fill="#f2f2f5"/>
<rect x="434" y="98" width="14" height="14" fill="#f2f2f5"/>
<rect x="448" y="98" width="14" height="14" fill="#f2f2f5"/>
<rect x="462" y="98" width="14" height="14" fill="#f2f2f5"/>
<rect x="476" y="98" width="14" height="14" fill="#f2f2f5"/>
<rect x="504" y="0" width="14" height="14" fill="#f2f2f5"/>
<rect x="518" y="0" width="14" height="14" fill="#f2f2f5"/>
<rect x="532" y="0" width="14" height="14" fill="#f2f2f5"/>
<rect x="546" y="0" width="14" height="14" fill="#f2f2f5"/>
<rect x="560" y="0" width="14" height="14" fill="#f2f2f5"/>
<rect x="574" y="0" width="14" height="14" fill="#f2f2f5"/>
<rect x="588" y="0" width="14" height="14" fill="#f2f2f5"/>
<rect x="602" y="0" width="14" height="14" fill="#f2f2f5"/>
<rect x="504" y="14" width="14" height="14" fill="#f2f2f5"/>
<rect x="518" y="14" width="14" height="14" fill="#f2f2f5"/>
<rect x="532" y="14" width="14" height="14" fill="#f2f2f5"/>
<rect x="546" y="14" width="14" height="14" fill="#f2f2f5"/>
<rect x="560" y="14" width="14" height="14" fill="#f2f2f5"/>
<rect x="574" y="14" width="14" height="14" fill="#f2f2f5"/>
<rect x="588" y="14" width="14" height="14" fill="#f2f2f5"/>
<rect x="602" y="14" width="14" height="14" fill="#f2f2f5"/>
<rect x="504" y="28" width="14" height="14" fill="#f2f2f5"/>
<rect x="518" y="28" width="14" height="14" fill="#f2f2f5"/>
<rect x="532" y="28" width="14" height="14" fill="#f2f2f5"/>
<rect x="546" y="28" width="14" height="14" fill="#f2f2f5"/>
<rect x="560" y="28" width="14" height="14" fill="#f2f2f5"/>
<rect x="574" y="28" width="14" height="14" fill="#f2f2f5"/>
<rect x="588" y="28" width="14" height="14" fill="#f2f2f5"/>
<rect x="602" y="28" width="14" height="14" fill="#f2f2f5"/>
<rect x="504" y="42" width="14" height="14" fill="#f2f2f5"/>
<rect x="518" y="42" width="14" height="14" fill="#f2f2f5"/>
<rect x="532" y="42" width="14" height="14" fill="#f2f2f5"/>
<rect x="546" y="42" width="14" height="14" fill="#f2f2f5"/>
<rect x="560" y="42" width="14" height="14" fill="#f2f2f5"/>
<rect x="574" y="42" width="14" height="14" fill="#f2f2f5"/>
<rect x="588" y="42" width="14" height="14" fill="#f2f2f5"/>
<rect x="602" y="42" width="14" height="14" fill="#f2f2f5"/>
<rect x="504" y="56" width="14" height="14" fill="#f2f2f5"/>
<rect x="518" y="56" width="14" height="14" fill="#f2f2f5"/>
<rect x="532" y="56" width="14" height="14" fill="#f2f2f5"/>
<rect x="546" y="56" width="14" height="14" fill="#f2f2f5"/>
<rect x="560" y="56" width="14" height="14" fill="#f2f2f5"/>
<rect x="574" y="56" width="14" height="14" fill="#f2f2f5"/>
<rect x="588" y="56" width="14" height="14" fill="#f2f2f5"/>
<rect x="602" y="56" width="14" height="14" fill="#f2f2f5"/>
<rect x="504" y="70" width="14" height="14" fill="#f2f2f5"/>
<rect x="518" y="70" width="14" height="14" fill="#f2f2f5"/>
<rect x="532" y="70" width="14" height="14" fill="#f2f2f5"/>
<rect x="546" y="70" width="14" height="14" fill="#f2f2f5"/>
<rect x="560" y="70" width="14" height="14" fill="#f2f2f5"/>
<rect x="574" y="70" width="14" height="14" fill="#f2f2f5"/>
<rect x="588" y="70" width="14" height="14" fill="#f2f2f5"/>
<rect x="602" y="70" width="14" height="14" fill="#f2f2f5"/>
<rect x="504" y="84" width="14" height="14" fill="#f2f2f5"/>
<rect x="518" y="84" width="14" height="14" fill="#f2f2f5"/>
<rect x="532" y="84" width="14" height="14" fill="#f2f2f5"/>
<rect x="546" y="84" width="14" height="14" fill="#f2f2f5"/>
<rect x="560" y="84" width="14" height="14" fill="#f2f2f5"/>
<rect x="574" y="84" width="14" height="14" fill="#f2f2f5"/>
<rect x="588" y="84" width="14" height="14" fill="#f2f2f5"/>
<rect x="602" y="84" width="14" height="14" fill="#f2f2f5"/>
<rect x="504" y="98" width="14" height="14" fill="#f2f2f5"/>
<rect x="518" y="98" width="14" height="14" fill="#f2f2f5"/>
<rect x="532" y="98" width="14" height="14" fill="#f2f2f5"/>
<rect x="546" y="98" width="14" height="14" fill="#f2f2f5"/>
<rect x="560" y="98" width="14" height="14" fill="#f2f2f5"/>
<rect x="574" y="98" width="14" height="14" fill="#f2f2f5"/>
<rect x="588" y="98" width="14" height="14" fill="#f2f2f5"/>
<rect x="602" y="98" width="14" height="14" fill="#f2f2f5"/>
<rect x="630" y="0" width="14" height="14" fill="#f2f2f5"/>
<rect x="644" y="0" width="14" height="14" fill="#f2f2f5"/>
<rect x="658" y="0" width="14" height="14" fill="#f2f2f5"/>
<rect x="672" y="0" width="14" height="14" fill="#f2f2f5"/>
<rect x="686" y="0" width="14" height="14" fill="#f2f2f5"/>
<rect x="700" y="0" width="14" height="14" fill="#f2f2f5"/>
<rect x="714" y="0" width="14" height="14" fill="#f2f2f5"/>
<rect x="728" y="0" width="14" height="14" fill="#f2f2f5"/>
<rect x="630" y="14" width="14" height="14" fill="#f2f2f5"/>
<rect x="644" y="14" width="14" height="14" fill="#f2f2f5"/>
<rect x="658" y="14" width="14" height="14" fill="#f2f2f5"/>
<rect x="672" y="14" width="14" height="14" fill="#f2f2f5"/>
<rect x="686" y="14" width="14" height="14" fill="#f2f2f5"/>
<rect x="700" y="14" width="14" height="14" fill="#f2f2f5"/>
<rect x="714" y="14" width="14" height="14" fill="#f2f2f5"/>
<rect x="728" y="14" width="14" height="14" fill="#f2f2f5"/>
<rect x="630" y="28" width="14" height="14" fill="#f2f2f5"/>
<rect x="644" y="28" width="14" height="14" fill="#f2f2f5"/>
<rect x="658" y="28" width="14" height="14" fill="#f2f2f5"/>
<rect x="672" y="28" width="14" height="14" fill="#f2f2f5"/>
<rect x="686" y="28" width="14" height="14" fill="#f2f2f5"/>
<rect x="700" y="28" width="14" height="14" fill="#f2f2f5"/>
<rect x="714" y="28" width="14" height="14" fill="#f2f2f5"/>
<rect x="728" y="28" width="14" height="14" fill="#f2f2f5"/>
<rect x="630" y="42" width="14" height="14" fill="#f2f2f5"/>
<rect x="644" y="42" width="14" height="14" fill="#f2f2f5"/>
<rect x="658" y="42" width="14" height="14" fill="#f2f2f5"/>
<rect x="672" y="42" width="14" height="14" fill="#f2f2f5"/>
<rect x="686" y="42" width="14" height="14" fill="#f2f2f5"/>
<rect x="700" y="42" width="14" height="14" fill="#f2f2f5"/>
<rect x="714" y="42" width="14" height="14" fill="#f2f2f5"/>
<rect x="728" y="42" width="14" height="14" fill="#f2f2f5"/>
<rect x="630" y="56" width="14" height="14" fill="#f2f2f5"/>
<rect x="644" y="56" width="14" height="14" fill="#f2f2f5"/>
<rect x="658" y="56" width="14" height="14" fill="#f2f2f5"/>
<rect x="672" y="56" width="14" height="14" fill="#f2f2f5"/>
<rect x="686" y="56" width="14" height="14" fill="#f2f2f5"/>
<rect x="700" y="56" width="14" height="14" fill="#f2f2f5"/>
<rect x="714" y="56" width="14" height="14" fill="#f2f2f5"/>
<rect x="728" y="56" width="14" height="14" fill="#f2f2f5"/>
<rect x="630" y="70" width="14" height="14" fill="#f2f2f5"/>
<rect x="644" y="70" width="14" height="14" fill="#f2f2f5"/>
<rect x="658" y="70" width="14" height="14" fill="#f2f2f5"/>
<rect x="672" y="70" width="14" height="14" fill="#f2f2f5"/>
<rect x="686" y="70" width="14" height="14" fill="#f2f2f5"/>
<rect x="700" y="70" width="14" height="14" fill="#f2f2f5"/>
<rect x="714" y="70" width="14" height="14" fill="#f2f2f5"/>
<rect x="728" y="70" width="14" height="14" fill="#27ae60"/>
<rect x="630" y="84" width="14" height="14" fill="#f2f2f5"/>
<rect x="644" y="84" width="14" height="14" fill="#f2f2f5"/>
<rect x="658" y="84" width="14" height="14" fill="#f2f2f5"/>
<rect x="672" y="84" width="14" height="14" fill="#f2f2f5"/>
<rect x="686" y="84" width="14" height="14" fill="#f2f2f5"/>
<rect x="700" y="84" width="14" height="14" fill="#f2f2f5"/>
<rect x="714" y="84" width="14" height="14" fill="#f2f2f5"/>
<rect x="728" y="84" width="14" height="14" fill="#f2f2f5"/>
<rect x="630" y="98" width="14" height="14" fill="#f2f2f5"/>
<rect x="644" y="98" width="14" height="14" fill="#f2f2f5"/>
<rect x="658" y="98" width="14" height="14" fill="#f2f2f5"/>
<rect x="672" y="98" width="14" height="14" fill="#f2f2f5"/>
<rect x="686" y="98" width="14" height="14" fill="#f2f2f5"/>
<rect x="700" y="98" width="14" height="14" fill="#f2f2f5"/>
<rect x="714" y="98" width="14" height="14" fill="#f2f2f5"/>
<rect x="728" y="98" width="14" height="14" fill="#f2f2f5"/>
<rect x="756" y="0" width="14" height="14" fill="#f2f2f5"/>
<rect x="770" y="0" width="14" height="14" fill="#f2f2f5"/>
<rect x="784" y="0" width="14" height="14" fill="#f2f2f5"/>
<rect x="798" y="0" width="14" height="14" fill="#f2f2f5"/>
<rect x="812" y="0" width="14" height="14" fill="#f2f2f5"/>
<rect x="826" y="0" width="14" height="14" fill="#f2f2f5"/>
<rect x="840" y="0" width="14" height="14" fill="#f2f2f5"/>
<rect x="854" y="0" width="14" height="14" fill="#f2f2f5"/>
<rect x="756" y="14" width="14" height="14" fill="#f2f2f5"/>
<rect x="770" y="14" width="14" height="14" fill="#f2f2f5"/>
<rect x="784" y="14" width="14" height="14" fill="#f2f2f5"/>
<rect x="798" y="14" width="14" height="14" fill="#f2f2f5"/>
<rect x="812" y="14" width="14" height="14" fill="#f2f2f5"/>
<rect x="826" y="14" width="14" height="14" fill="#f2f2f5"/>
<rect x="840" y="14" width="14" height="14" fill="#f2f2f5"/>
<rect x="854" y="14" width="14" height="14" fill="#f2f2f5"/>
<rect x="756" y="28" width="14" height="14" fill="#f2f2f5"/>
<rect x="770" y="28" width="14" height="14" fill="#f2f2f5"/>
<rect x="784" y="28" width="14" height="14" fill="#f2f2f5"/>
<rect x="798" y="28" width="14" height="14" fill="#f2f2f5"/>
<rect x="812" y="28" width="14" height="14" fill="#f2f2f5"/>
<rect x="826" y="28" width="14" height="14" fill="#f2f2f5"/>
<rect x="840" y="28" width="14" height="14" fill="#f2f2f5"/>
<rect x="854" y="28" width="14" height="14" fill="#f2f2f5"/>
<rect x="756" y="42" width="14" height="14" fill="#f2f2f5"/>
<rect x="770" y="42" width="14" height="14" fill="#f2f2f5"/>
<rect x="784" y="42" width="14" height="14" fill="#f2f2f5"/>
<rect x="798" y="42" width="14" height="14" fill="#f2f2f5"/>
<rect x="812" y="42" width="14" height="14" fill="#f2f2f5"/>
<rect x="826" y="42" width="14" height="14" fill="#f2f2f5"/>
<rect x="840" y="42" width="14" height="14" fill="#f2f2f5"/>
<rect x="854" y="42" width="14" height="14" fill="#f2f2f5"/>
<rect x="756" y="56" width="14" height="14" fill="#f2f2f5"/>
<rect x="770" y="56" width="14" height="14" fill="#0f0f12"/>
<rect x="784" y="56" width="14" height="14" fill="#0f0f12"/>
<rect x="798" y="56" width="14" height="14" fill="#f2f2f5"/>
<rect x="812" y="56" width="14" height="14" fill="#f2f2f5"/>
<rect x="826" y="56" width="14" height="14" fill="#f2f2f5"/>
<rect x="840" y="56" width="14" height="14" fill="#f2f2f5"/>
<rect x="854" y="56" width="14" height="14" fill="#f2f2f5"/>
<rect x="756" y="70" width="14" height="14" fill="#f2f2f5"/>
<rect x="770" y="70" width="14" height="14" fill="#0f0f12"/>
<rect x="784" y="70" width="14" height="14" fill="#0f0f12"/>
<rect x="798" y="70" width="14" height="14" fill="#f2f2f5"/>
<rect x="812" y="70" width="14" height="14" fill="#f2f2f5"/>
<rect x="826" y="70" width="14" height="14" fill="#f2f2f5"/>
<rect x="840" y="70" width="14" height="14" fill="#f2f2f5"/>
<rect x="854" y="70" width="14" height="14" fill="#f2f2f5"/>
<rect x="756" y="84" width="14" height="14" fill="#f2f2f5"/>
<rect x="770" y="84" width="14" height="14" fill="#f2f2f5"/>
<rect x="784" y="84" width="14" height="14" fill="#f2f2f5"/>
<rect x="798" y="84" width="14" height="14" fill="#f2f2f5"/>
<rect x="812" y="84" width="14" height="14" fill="#f2f2f5"/>
<rect x="826" y="84" width="14" height="14" fill="#f2f2f5"/>
<rect x="840" y="84" width="14" height="14" fill="#f2f2f5"/>
<rect x="854" y="84" width="14" height="14" fill="#f2f2f5"/>
<rect x="756" y="98" width="14" height="14" fill="#f2f2f5"/>
<rect x="770" y="98" width="14" height="14" fill="#f2f2f5"/>
<rect x="784" y="98" width="14" height="14" fill="#f2f2f5"/>
<rect x="798" y="98" width="14" height="14" fill="#f2f2f5"/>
<rect x="812" y="98" width="14" height="14" fill="#f2f2f5"/>
<rect x="826" y="98" width="14" height="14" fill="#f2f2f5"/>
<rect x="840" y="98" width="14" height="14" fill="#f2f2f5"/>
<rect x="854" y="98" width="14" height="14" fill="#f2f2f5"/>
<rect x="882" y="0" width="14" height="14" fill="#f2f2f5"/>
<rect x="896" y="0" width="14" height="14" fill="#f2f2f5"/>
<rect x="910" y="0" width="14" height="14" fill="#f2f2f5"/>
<rect x="924" y="0" width="14" height="14" fill="#f2f2f5"/>
<rect x="938" y="0" width="14" height="14" fill="#f2f2f5"/>
<rect x="952" y="0" width="14" height="14" fill="#f2f2f5"/>
<rect x="966" y="0" width="14" height="14" fill="#f2f2f5"/>
<rect x="980" y="0" width="14" height="14" fill="#f2f2f5"/>
<rect x="882" y="14" width="14" height="14" fill="#f2f2f5"/>
<rect x="896" y="14" width="14" height="14" fill="#f2f2f5"/>
<rect x="910" y="14" width="14" height="14" fill="#f2f2f5"/>
<rect x="924" y="14" width="14" height="14" fill="#f2f2f5"/>
<rect x="938" y="14" width="14" height="14" fill="#f2f2f5"/>
<rect x="952" y="14" width="14" height="14" fill="#f2f2f5"/>
<rect x="966" y="14" width="14" height="14" fill="#f2f2f5"/>
<rect x="980" y="14" width="14" height="14" fill="#f2f2f5"/>
<rect x="882" y="28" width="14" height="14" fill="#f2f2f5"/>
<rect x="896" y="28" width="14" height="14" fill="#f2f2f5"/>
<rect x="910" y="28" width="14" height="14" fill="#f2f2f5"/>
<rect x="924" y="28" width="14" height="14" fill="#f2f2f5"/>
<rect x="938" y="28" width="14" height="14" fill="#f2f2f5"/>
<rect x="952" y="28" width="14" height="14" fill="#f2f2f5"/>
<rect x="966" y="28" width="14" height="14" fill="#f2f2f5"/>
<rect x="980" y="28" width="14" height="14" fill="#f2f2f5"/>
<rect x="882" y="42" width="14" height="14" fill="#f2f2f5"/>
<rect x="896" y="42" width="14" height="14" fill="#f2f2f5"/>
<rect x="910" y="42" width="14" height="14" fill="#f2f2f5"/>
<rect x="924" y="42" width="14" height="14" fill="#f2f2f5"/>
<rect x="938" y="42" width="14" height="14" fill="#f2f2f5"/>
<rect x="952" y="42" width="14" height="14" fill="#f2f2f5"/>
<rect x="966" y="42" width="14" height="14" fill="#f2f2f5"/>
<rect x="980" y="42" width="14" height="14" fill="#f2f2f5"/>
<rect x="882" y="56" width="14" height="14" fill="#f2f2f5"/>
<rect x="896" y="56" width="14" height="14" fill="#0f0f12"/>
<rect x="910" y="56" width="14" height="14" fill="#0f0f12"/>
<rect x="924" y="56" width="14" height="14" fill="#f2f2f5"/>
<rect x="938" y="56" width="14" height="14" fill="#f2f2f5"/>
<rect x="952" y="56" width="14" height="14" fill="#f2f2f5"/>
<rect x="966" y="56" width="14" height="14" fill="#f2f2f5"/>
<rect x="980" y="56" width="14" height="14" fill="#f2f2f5"/>
<rect x="882" y="70" width="14" height="14" fill="#f2f2f5"/>
<rect x="896" y="70" width="14" height="14" fill="#0f0f12"/>
<rect x="910" y="70" width="14" height="14" fill="#0f0f12"/>
<rect x="924" y="70" width="14" height="14" fill="#f2f2f5"/>
<rect x="938" y="70" width="14" height="14" fill="#f2f2f5"/>
<rect x="952" y="70" width="14" height="14" fill="#f2f2f5"/>
<rect x="966" y="70" width="14" height="14" fill="#f2f2f5"/>
<rect x="980" y="70" width="14" height="14" fill="#f2f2f5"/>
<rect x="882" y="84" width="14" height="14" fill="#f2f2f5"/>
<rect x="896" y="84" width="14" height="14" fill="#f2f2f5"/>
<rect x="910" y="84" width="14" height="14" fill="#f2f2f5"/>
<rect x="924" y="84" width="14" height="14" fill="#f2f2f5"/>
<rect x="938" y="84" width="14" height="14" fill="#f2f2f5"/>
<rect x="952" y="84" width="14" height="14" fill="#f2f2f5"/>
<rect x="966" y="84" width="14" height="14" fill="#f2f2f5"/>
<rect x="980" y="84" width="14" height="14" fill="#f2f2f5"/>
<rect x="882" y="98" width="14" height="14" fill="#f2f2f5"/>
<rect x="896" y="98" width="14" height="14" fill="#f2f2f5"/>
<rect x="910" y="98" width="14" height="14" fill="#f2f2f5"/>
<rect x="924" y="98" width="14" height="14" fill="#f2f2f5"/>
<rect x="938" y="98" width="14" height="14" fill="#f2f2f5"/>
<rect x="952" y="98" width="14" height="14" fill="#f2f2f5"/>
<rect x="966" y="98" width="14" height="14" fill="#f2f2f5"/>
<rect x="980" y="98" width="14" height="14" fill="#f2f2f5"/>
</svg>